<svg width="278" height="273" viewBox="0 0 278 273" fill="none" xmlns="http://www.w3.org/2000/svg">
<g style="mix-blend-mode:overlay">
<path d="M276.431 136.515C276.459 154.505 272.808 172.318 265.695 188.896C265.483 189.387 265.271 189.877 265.044 190.383C257.122 208.284 245.332 224.28 230.491 237.261L229.37 238.242C212.637 252.606 192.608 262.772 170.999 267.869C149.39 272.965 126.845 272.841 105.296 267.506C83.7469 262.172 63.8354 251.786 47.2672 237.238C30.6991 222.69 17.9681 204.415 10.1649 183.977C2.36168 163.539 -0.281204 141.547 2.46264 119.886C5.20649 98.2254 13.2553 77.5406 25.9195 59.6038C38.5838 41.667 55.486 27.0128 75.1784 16.8965C94.8708 6.78025 116.766 1.50344 138.99 1.5181C147.348 1.52083 155.689 2.26249 163.913 3.73409C195.51 9.46264 224.065 25.881 244.62 50.1375C265.175 74.3939 276.43 104.956 276.431 136.515Z" fill="#68E1FD"/>
<path d="M138.99 273C105.197 273.004 72.5614 260.915 47.1879 238.994C21.8144 217.073 5.44207 186.822 1.13421 153.902C-3.17366 120.981 4.87817 87.6473 23.7831 60.1363C42.6881 32.6254 71.1508 12.8227 103.846 4.43356C123.562 -0.569538 144.15 -1.30534 164.185 2.27706C184.621 5.98098 203.953 14.1371 220.757 26.1456C237.561 38.1541 251.411 53.7096 261.289 71.6681C271.167 89.6266 276.82 109.531 277.834 129.919C278.848 150.306 275.197 170.658 267.149 189.476C266.937 189.982 266.71 190.488 266.483 190.964C258.453 209.035 246.542 225.188 231.566 238.317L230.809 238.987L230.43 239.314C205.106 261.044 172.616 273.014 138.99 273ZM138.99 3.00581C121.135 2.99016 103.452 6.43281 86.9537 13.1368C70.4551 19.8407 55.4643 29.6744 42.8391 42.075C30.214 54.4757 20.2023 69.1999 13.377 85.4051C6.55165 101.61 3.04668 118.978 3.06261 136.516C3.01509 155.111 6.96215 173.507 14.646 190.502C23.2639 209.634 36.338 226.508 52.8141 239.766C69.2902 253.023 88.7073 262.293 109.5 266.827C130.293 271.361 151.879 271.033 172.519 265.869C193.159 260.705 212.275 250.85 228.325 237.098L228.704 236.771L229.431 236.131C244.09 223.278 255.748 207.464 263.606 189.774C263.848 189.268 264.045 188.792 264.257 188.286C272.122 169.886 275.69 149.989 274.701 130.056C273.711 110.123 268.188 90.6615 258.537 73.1C248.887 55.5385 235.353 40.3234 218.932 28.5721C202.51 16.8208 183.617 8.8319 163.64 5.19206C155.506 3.74265 147.256 3.01098 138.99 3.00581Z" fill="#093F68"/>
<path d="M65.3101 119.948C63.9928 124.202 58.0269 130.255 51.6826 139.862C45.3382 149.47 48.5785 166.945 48.5785 166.945L40.5686 174.708L74.4708 207.993C80.5275 202.311 93.1708 193.418 102.014 187.915C112.022 181.683 141.609 151.567 145.288 147.626C149.422 143.164 146.803 136.308 141.109 136.665C136.749 136.947 131.07 141.721 128.602 143.982C132.055 140.665 141.624 131.266 144.153 126.745C147.257 121.197 143.865 118.148 139.08 115.932C137.566 115.263 135.658 115.932 133.584 117.256C134.924 115.979 136.131 114.574 137.188 113.062C139.444 109.374 138.126 104.005 132.297 102.354C129.269 101.462 125.937 103.588 123.515 105.775C128.814 99.4687 128.33 96.5983 124.211 92.553C119.32 87.7492 118.155 89.9652 107.268 100.688L80.7395 126.745C80.7395 126.745 84.8883 111.218 84.0555 106.34C83.2227 101.462 79.0587 99.9446 73.214 103.454C67.3694 106.964 66.6274 115.694 65.3101 119.948Z" fill="#E28362"/>
<path d="M74.5162 209.48C74.317 209.481 74.1194 209.444 73.9349 209.37C73.7504 209.296 73.5827 209.186 73.4412 209.049L39.5541 175.749C39.2721 175.471 39.1138 175.094 39.1138 174.701C39.1138 174.308 39.2721 173.931 39.5541 173.652L46.8978 166.424C46.3224 162.825 44.4146 147.982 50.3653 139.044C53.015 135.058 55.5589 131.727 57.7998 128.782C60.8282 124.871 63.1751 121.762 63.8565 119.517C64.0988 118.714 64.341 117.687 64.5984 116.542C65.7189 111.798 67.2482 105.269 72.457 102.146C76.9995 99.424 80.0278 99.7958 81.7691 100.658C82.8229 101.181 83.7251 101.957 84.3921 102.914C85.0592 103.871 85.4694 104.977 85.5848 106.131C86.145 109.463 84.6915 116.869 83.5104 121.971L106.223 99.6619L109.251 96.6874C114.763 91.2144 117.276 88.7158 120.108 88.7158C122.001 88.7158 123.545 89.8461 125.286 91.5564C128.633 94.8433 129.662 97.6542 128.315 101.105C129.727 100.629 131.254 100.587 132.691 100.986C134.12 101.326 135.447 101.992 136.565 102.93C137.683 103.867 138.56 105.051 139.126 106.384C139.604 107.603 139.793 108.914 139.677 110.215C139.562 111.517 139.145 112.775 138.46 113.895L138.217 114.252C138.742 114.289 139.255 114.42 139.731 114.638C142.154 115.769 145.5 117.613 146.545 120.796C146.859 121.926 146.927 123.108 146.747 124.265C146.568 125.423 146.143 126.531 145.5 127.518C143.625 130.411 141.464 133.116 139.05 135.594C139.69 135.403 140.351 135.288 141.019 135.252C142.466 135.109 143.922 135.411 145.186 136.117C146.451 136.823 147.46 137.898 148.075 139.193C148.793 140.748 149.02 142.48 148.726 144.164C148.431 145.847 147.63 147.406 146.424 148.637C143.926 151.388 113.249 182.62 102.861 189.164C94.2156 194.548 81.6631 203.352 75.6064 209.078C75.4607 209.213 75.2893 209.317 75.1022 209.386C74.9151 209.455 74.7159 209.487 74.5162 209.48ZM42.7187 174.693L74.5162 205.925C82.9361 198.873 91.8514 192.412 101.196 186.591C110.902 180.568 139.777 151.269 144.168 146.555C144.961 145.76 145.493 144.75 145.696 143.655C145.898 142.56 145.762 141.43 145.304 140.412C144.957 139.65 144.373 139.014 143.636 138.598C142.899 138.181 142.046 138.004 141.2 138.092C138.49 138.271 134.159 140.859 129.647 145.008C129.504 145.144 129.335 145.25 129.15 145.322C128.965 145.394 128.767 145.429 128.568 145.425C128.369 145.422 128.173 145.38 127.99 145.302C127.808 145.224 127.643 145.111 127.505 144.971C127.366 144.83 127.258 144.664 127.185 144.482C127.112 144.3 127.076 144.106 127.08 143.911C127.083 143.715 127.126 143.523 127.205 143.343C127.285 143.164 127.399 143.002 127.542 142.866C130.571 140.011 140.367 130.373 142.836 125.971C143.272 125.338 143.57 124.622 143.711 123.869C143.852 123.117 143.832 122.343 143.653 121.599C143.138 120.112 141.427 118.624 138.429 117.211C137.672 116.869 136.203 117.315 134.402 118.446C134.089 118.649 133.71 118.731 133.339 118.676C132.968 118.621 132.632 118.432 132.394 118.147C132.157 117.862 132.035 117.501 132.054 117.133C132.072 116.765 132.229 116.416 132.494 116.155C133.756 114.963 134.897 113.653 135.901 112.244C136.349 111.515 136.622 110.696 136.698 109.848C136.774 108.999 136.652 108.145 136.34 107.351C135.935 106.446 135.32 105.646 134.545 105.016C133.769 104.386 132.854 103.943 131.873 103.722C129.42 103.008 126.528 105.001 124.544 106.801C124.262 107.055 123.893 107.194 123.51 107.192C123.127 107.189 122.76 107.044 122.481 106.785C122.203 106.527 122.035 106.175 122.01 105.8C121.986 105.425 122.107 105.054 122.349 104.763C127.376 98.8142 126.513 96.851 123.136 93.5494C121.728 92.1662 120.82 91.5713 120.108 91.5713C118.594 91.5713 115.853 94.2335 111.417 98.6506C110.493 99.5727 109.478 100.584 108.388 101.625L81.86 127.682C81.6222 127.922 81.3088 128.076 80.9706 128.12C80.6323 128.163 80.2891 128.093 79.9964 127.921C79.7038 127.749 79.4789 127.485 79.3582 127.171C79.2374 126.858 79.228 126.514 79.3313 126.194C80.4518 121.971 83.2379 110.162 82.617 106.429C82.5637 105.758 82.3457 105.11 81.9818 104.541C81.6179 103.971 81.1189 103.496 80.5275 103.157C79.0133 102.473 76.6966 102.964 74.062 104.555C69.9283 107.039 68.5656 112.854 67.5662 117.092C67.2937 118.238 67.0363 119.323 66.7637 120.216C65.9158 122.967 63.5234 126.09 60.2225 130.418C58.0118 133.393 55.4983 136.605 52.8939 140.516C46.9129 149.44 49.9716 166.335 50.017 166.499C50.0612 166.736 50.0457 166.981 49.9718 167.212C49.8979 167.443 49.7679 167.652 49.593 167.822L42.7187 174.693Z" fill="#093F68"/>
<path d="M93.0042 137.274C92.8039 137.274 92.6057 137.234 92.4212 137.157C92.2366 137.081 92.0694 136.969 91.9292 136.828C91.6471 136.55 91.4889 136.173 91.4889 135.78C91.4889 135.387 91.6471 135.01 91.9292 134.731L122.485 104.719C122.626 104.58 122.794 104.47 122.978 104.395C123.163 104.32 123.36 104.281 123.56 104.281C123.76 104.281 123.957 104.32 124.142 104.395C124.326 104.47 124.494 104.58 124.635 104.719C124.776 104.857 124.888 105.022 124.965 105.203C125.041 105.384 125.08 105.578 125.08 105.775C125.08 105.971 125.041 106.165 124.965 106.346C124.888 106.527 124.776 106.692 124.635 106.831L94.0793 136.828C93.939 136.969 93.7718 137.081 93.5873 137.157C93.4027 137.234 93.2046 137.274 93.0042 137.274Z" fill="#093F68"/>
<path d="M103.891 147.953C103.692 147.954 103.494 147.916 103.31 147.842C103.125 147.768 102.958 147.659 102.816 147.521C102.534 147.243 102.376 146.866 102.376 146.473C102.376 146.08 102.534 145.703 102.816 145.424L132.554 116.2C132.695 116.061 132.863 115.95 133.047 115.875C133.232 115.799 133.429 115.76 133.629 115.76C133.829 115.76 134.027 115.799 134.212 115.875C134.396 115.95 134.564 116.061 134.704 116.2C134.986 116.479 135.145 116.856 135.145 117.249C135.145 117.642 134.986 118.019 134.704 118.297L104.951 147.521C104.669 147.796 104.288 147.951 103.891 147.953Z" fill="#093F68"/>
<path d="M114.157 159.717C113.957 159.717 113.759 159.677 113.574 159.6C113.39 159.523 113.222 159.412 113.082 159.271C112.8 158.993 112.642 158.616 112.642 158.223C112.642 157.83 112.8 157.453 113.082 157.174L127.588 142.941C127.724 142.786 127.891 142.659 128.078 142.57C128.266 142.481 128.471 142.43 128.679 142.422C128.888 142.415 129.096 142.449 129.29 142.524C129.485 142.599 129.661 142.712 129.809 142.857C129.956 143.002 130.072 143.175 130.148 143.366C130.224 143.557 130.259 143.761 130.251 143.966C130.243 144.171 130.192 144.372 130.101 144.556C130.01 144.741 129.881 144.905 129.723 145.038L115.232 159.271C115.092 159.412 114.925 159.523 114.74 159.6C114.556 159.677 114.357 159.717 114.157 159.717Z" fill="#093F68"/>
<path d="M77.4991 210.878L49.1993 238.719C33.7827 225.66 21.506 209.406 13.2529 191.127L35.2841 169.488L74.5162 208.022L77.4991 210.878Z" fill="#FFBC0E"/>
<path d="M49.1993 240.206C48.8332 240.21 48.4782 240.083 48.2 239.849C32.633 226.619 20.2255 210.182 11.86 191.707C11.7374 191.432 11.7021 191.128 11.7589 190.833C11.8156 190.539 11.9617 190.268 12.1779 190.056L34.2091 168.417C34.4928 168.14 34.8766 167.984 35.2766 167.984C35.6766 167.984 36.0604 168.14 36.3441 168.417L78.5439 209.881C78.826 210.16 78.9842 210.537 78.9842 210.93C78.9842 211.323 78.826 211.7 78.5439 211.978L50.2593 239.775C49.9772 240.049 49.5966 240.204 49.1993 240.206ZM15.07 191.439C23.0464 208.71 34.6516 224.128 49.1236 236.681L75.3945 210.878L35.3296 171.54L15.07 191.439Z" fill="#093F68"/>
<path d="M156.16 186.353C160.491 187.647 166.653 193.522 176.435 199.738C186.216 205.955 204.008 202.802 204.008 202.802L211.897 210.551L245.799 177.266C240.015 171.317 230.96 158.899 225.358 150.213C219.013 140.368 188.351 111.322 184.339 107.708C179.796 103.648 172.816 106.221 173.179 111.813C173.467 116.096 178.328 121.658 180.629 124.082C177.253 120.706 167.683 111.307 163.08 108.823C157.432 105.849 154.328 109.091 152.072 113.805C151.391 115.218 152.072 117.167 153.419 119.204C152.119 117.884 150.689 116.693 149.15 115.65C145.394 113.434 139.928 114.728 138.232 120.453C137.339 123.428 139.504 126.715 141.73 129.094C135.31 123.874 132.388 124.365 128.269 128.41C123.378 133.214 125.635 134.359 136.552 145.038L163.08 171.094C163.08 171.094 147.272 167.034 142.306 167.837C137.339 168.64 135.795 172.76 139.368 178.486C142.941 184.212 151.83 185.059 156.16 186.353Z" fill="#FFC9B0"/>
<path d="M211.912 212.098C211.713 212.099 211.515 212.061 211.331 211.987C211.146 211.913 210.978 211.804 210.837 211.666L203.478 204.453C199.814 205.018 184.687 206.877 175.602 201.047C171.544 198.43 168.152 195.946 165.154 193.73C161.172 190.756 158.007 188.465 155.721 187.781C154.903 187.543 153.859 187.305 152.693 187.052C147.847 185.952 141.215 184.435 138.036 179.334C135.265 174.872 135.643 171.897 136.446 170.172C136.979 169.139 137.769 168.255 138.743 167.603C139.718 166.95 140.844 166.55 142.018 166.439C145.41 165.889 152.95 167.317 158.144 168.462L135.431 146.153L132.403 143.179C126.831 137.78 124.287 135.311 124.287 132.53C124.287 130.671 125.438 129.139 127.179 127.429C130.525 124.142 133.387 123.116 136.885 124.454C136.417 123.069 136.375 121.58 136.764 120.171C137.117 118.767 137.799 117.463 138.756 116.363C139.713 115.263 140.918 114.397 142.275 113.835C143.507 113.381 144.828 113.205 146.139 113.321C147.449 113.437 148.717 113.841 149.846 114.505C149.967 114.505 150.088 114.653 150.21 114.728C150.247 114.213 150.381 113.709 150.603 113.241C151.754 110.861 153.632 107.574 156.872 106.533C158.023 106.228 159.227 106.164 160.406 106.343C161.585 106.522 162.712 106.942 163.716 107.574C166.662 109.41 169.416 111.527 171.938 113.895C171.744 113.271 171.627 112.627 171.59 111.976C171.454 110.551 171.774 109.12 172.504 107.881C173.233 106.642 174.337 105.656 175.663 105.061C177.245 104.353 179.007 104.128 180.721 104.414C182.435 104.701 184.022 105.485 185.278 106.667C188.442 109.537 219.876 139.148 226.539 149.485C232.02 157.962 240.984 170.306 246.813 176.255C247.086 176.532 247.239 176.903 247.239 177.289C247.239 177.674 247.086 178.045 246.813 178.322L212.911 211.622C212.652 211.899 212.294 212.069 211.912 212.098ZM204.008 201.375C204.405 201.376 204.786 201.531 205.068 201.806L211.912 208.513L243.709 177.281C236.52 169.019 229.942 160.261 224.025 151.076C217.969 141.573 188.049 113.181 183.249 108.868C182.442 108.085 181.413 107.56 180.297 107.361C179.182 107.162 178.031 107.299 176.995 107.753C176.22 108.095 175.575 108.669 175.151 109.393C174.727 110.116 174.545 110.953 174.633 111.783C174.815 114.445 177.449 118.699 181.674 123.131C181.829 123.268 181.953 123.434 182.04 123.621C182.126 123.807 182.172 124.008 182.175 124.213C182.179 124.418 182.139 124.621 182.059 124.809C181.979 124.998 181.859 125.169 181.709 125.31C181.559 125.452 181.38 125.561 181.185 125.632C180.989 125.703 180.781 125.733 180.573 125.721C180.365 125.709 180.162 125.655 179.976 125.563C179.79 125.47 179.626 125.341 179.494 125.183C176.586 122.283 166.775 112.601 162.293 110.177C161.647 109.748 160.919 109.455 160.152 109.317C159.386 109.179 158.599 109.198 157.841 109.374C156.251 109.879 154.813 111.56 153.298 114.505C152.95 115.233 153.404 116.676 154.555 118.461C154.748 118.768 154.821 119.134 154.76 119.491C154.698 119.847 154.507 120.169 154.221 120.397C153.935 120.625 153.575 120.742 153.207 120.728C152.84 120.714 152.49 120.569 152.223 120.32C151.015 119.079 149.681 117.963 148.241 116.988C147.499 116.548 146.665 116.28 145.801 116.205C144.938 116.13 144.068 116.251 143.259 116.557C142.34 116.953 141.527 117.555 140.885 118.314C140.244 119.073 139.792 119.969 139.565 120.93C138.838 123.354 140.867 126.194 142.699 128.143C142.958 128.42 143.1 128.783 143.097 129.159C143.094 129.535 142.947 129.896 142.684 130.169C142.421 130.442 142.062 130.608 141.68 130.632C141.298 130.656 140.921 130.537 140.625 130.299C134.568 125.362 132.569 126.209 129.208 129.511C127.785 130.909 127.194 131.801 127.194 132.485C127.194 133.973 129.905 136.665 134.402 141.037C135.34 141.944 136.37 142.941 137.43 144.012L163.973 170.068C164.218 170.302 164.375 170.609 164.419 170.942C164.463 171.274 164.392 171.611 164.217 171.898C164.042 172.186 163.773 172.407 163.454 172.525C163.135 172.644 162.784 172.653 162.459 172.552C158.144 171.451 146.136 168.715 142.321 169.324C141.641 169.375 140.985 169.587 140.407 169.942C139.829 170.297 139.348 170.784 139.005 171.362C138.293 172.849 138.793 175.14 140.413 177.727C142.941 181.773 148.862 183.126 153.177 184.108C154.343 184.375 155.449 184.613 156.357 184.896C159.158 185.729 162.414 188.079 166.729 191.321C169.757 193.492 173.028 195.961 177.025 198.519C186.186 204.394 203.311 201.375 203.478 201.345L204.008 201.375Z" fill="#093F68"/>
<path d="M172.301 160.654C172.101 160.653 171.903 160.613 171.718 160.537C171.534 160.46 171.366 160.348 171.226 160.208L140.655 130.195C140.373 129.916 140.215 129.54 140.215 129.147C140.215 128.754 140.373 128.377 140.655 128.098C140.796 127.959 140.963 127.848 141.148 127.773C141.332 127.697 141.53 127.658 141.73 127.658C141.93 127.658 142.128 127.697 142.312 127.773C142.497 127.848 142.664 127.959 142.805 128.098L173.346 158.111C173.628 158.389 173.786 158.766 173.786 159.159C173.786 159.552 173.628 159.929 173.346 160.208C173.07 160.484 172.695 160.644 172.301 160.654Z" fill="#093F68"/>
<path d="M183.158 149.901C182.958 149.902 182.761 149.865 182.576 149.791C182.392 149.717 182.224 149.608 182.083 149.47L152.344 120.305C152.186 120.172 152.057 120.007 151.966 119.823C151.875 119.638 151.824 119.437 151.816 119.233C151.808 119.028 151.843 118.824 151.92 118.633C151.996 118.442 152.111 118.269 152.259 118.124C152.406 117.979 152.583 117.865 152.777 117.79C152.971 117.716 153.179 117.681 153.388 117.689C153.596 117.697 153.801 117.747 153.989 117.836C154.177 117.926 154.344 118.052 154.479 118.208L184.233 147.417C184.375 147.556 184.487 147.72 184.564 147.901C184.641 148.083 184.681 148.277 184.681 148.473C184.681 148.67 184.641 148.864 184.564 149.045C184.487 149.226 184.375 149.391 184.233 149.529C183.937 149.786 183.552 149.919 183.158 149.901Z" fill="#093F68"/>
<path d="M195.135 139.877C194.934 139.877 194.736 139.837 194.552 139.76C194.367 139.684 194.2 139.572 194.06 139.431L179.569 125.198C179.321 124.914 179.191 124.548 179.206 124.173C179.221 123.799 179.379 123.444 179.649 123.179C179.918 122.914 180.28 122.759 180.661 122.745C181.042 122.73 181.414 122.858 181.704 123.101L196.195 137.334C196.477 137.613 196.635 137.99 196.635 138.383C196.635 138.776 196.477 139.153 196.195 139.431C195.915 139.711 195.534 139.872 195.135 139.877Z" fill="#093F68"/>
<path d="M265.044 190.354C257.122 208.255 245.332 224.251 230.491 237.232L229.37 238.214L206.582 215.905L211.897 210.685L245.799 177.37L248.827 174.396L265.044 190.354Z" fill="#F56132"/>
<path d="M229.37 239.701C229.171 239.702 228.973 239.664 228.789 239.59C228.604 239.516 228.437 239.407 228.295 239.269L205.507 216.827C205.225 216.548 205.067 216.171 205.067 215.778C205.067 215.385 205.225 215.008 205.507 214.73L210.822 209.509L210.958 209.391L247.707 173.28C247.848 173.141 248.015 173.03 248.2 172.955C248.384 172.879 248.582 172.84 248.782 172.84C248.982 172.84 249.18 172.879 249.364 172.955C249.549 173.03 249.716 173.141 249.857 173.28L266.18 189.313C266.393 189.523 266.537 189.791 266.594 190.083C266.65 190.374 266.617 190.676 266.498 190.949C258.468 209.032 246.551 225.196 231.566 238.332L230.809 239.002L230.43 239.329C230.139 239.582 229.759 239.715 229.37 239.701ZM208.717 215.905L229.431 236.161C243.833 223.533 255.342 208.047 263.197 190.726L248.736 176.522L212.942 211.696L212.805 211.815L208.717 215.905Z" fill="#093F68"/>
<path d="M178.358 103.082C176.223 99.1558 176.087 90.7231 173.694 79.4944C171.302 68.2658 156.402 58.1823 156.402 58.1823V47.2808H108.449C108.206 55.5498 105.723 70.571 103.437 80.6099C100.832 91.9724 101.605 133.809 101.832 139.163C102.104 145.112 108.888 148.235 112.673 143.996C115.565 140.769 116.141 133.466 116.247 130.15C116.247 134.879 116.247 148.19 117.67 153.143C119.472 159.211 124.06 159.092 129.041 157.262C130.556 156.727 131.434 154.853 131.979 152.518C131.953 154.347 132.105 156.175 132.433 157.976C133.508 162.155 138.293 165.026 143.608 162.155C146.424 160.668 147.227 156.861 147.363 153.633C148.15 161.769 150.573 163.464 156.448 163.464C163.368 163.464 162.505 161.114 162.505 145.944V109.031C162.505 109.031 170.757 122.877 174.845 125.748C178.933 128.618 182.991 126.804 184.596 120.26C186.201 113.716 180.463 106.994 178.358 103.082Z" fill="#FFC9B0"/>
<path d="M156.387 164.878C151.648 164.878 148.816 163.613 147.302 160.267C146.635 161.583 145.58 162.672 144.274 163.39C143.013 164.135 141.593 164.58 140.126 164.691C138.66 164.802 137.187 164.576 135.825 164.03C134.609 163.501 133.532 162.707 132.676 161.706C131.82 160.706 131.209 159.527 130.889 158.259C130.889 158.125 130.889 157.992 130.798 157.828C130.405 158.152 129.96 158.408 129.481 158.587C126.967 159.479 123.257 160.475 120.229 158.958C119.194 158.38 118.295 157.593 117.59 156.65C116.886 155.707 116.392 154.629 116.141 153.485C115.386 150.138 114.965 146.726 114.884 143.298C114.555 143.865 114.175 144.403 113.748 144.904C112.815 146.002 111.559 146.789 110.151 147.157C108.744 147.525 107.255 147.454 105.89 146.956C104.26 146.361 102.85 145.298 101.843 143.905C100.836 142.513 100.278 140.856 100.242 139.148C99.9694 132.708 99.3032 91.4821 101.877 80.2088C104.118 70.4079 106.617 55.4909 106.859 47.1772C106.859 46.7827 107.018 46.4045 107.302 46.1255C107.586 45.8466 107.971 45.6899 108.373 45.6899H156.312C156.713 45.6899 157.098 45.8466 157.382 46.1255C157.666 46.4045 157.826 46.7827 157.826 47.1772V57.3945C160.854 59.5362 172.861 68.7125 175.087 79.1529C176.087 83.8228 176.677 87.9425 177.207 91.5714C177.919 96.4346 178.464 100.272 179.6 102.354C180.008 103.097 180.569 103.99 181.114 104.942C183.748 109.076 187.352 114.757 185.929 120.587C184.687 125.644 182.28 127.503 180.463 128.158C179.341 128.514 178.147 128.59 176.989 128.377C175.83 128.164 174.744 127.669 173.831 126.938C171.029 124.96 166.729 118.714 163.882 114.296V145.841V150.079C163.882 157.769 163.882 161.278 161.959 163.256C160.763 164.61 158.855 164.878 156.387 164.878ZM147.302 152.072C147.679 152.071 148.043 152.207 148.323 152.454C148.603 152.702 148.779 153.043 148.816 153.411C149.558 161.13 151.572 161.903 156.387 161.903C158.386 161.903 159.416 161.68 159.961 161.189C161.066 160.089 161.051 156.341 161.006 150.124C161.006 148.83 161.006 147.417 161.006 145.871V109.032C160.994 108.696 161.098 108.366 161.302 108.096C161.505 107.826 161.796 107.632 162.126 107.544C162.446 107.461 162.785 107.482 163.091 107.606C163.398 107.729 163.654 107.948 163.822 108.228C166.078 112.006 172.604 122.298 175.738 124.499C176.257 124.933 176.875 125.239 177.539 125.389C178.203 125.539 178.894 125.53 179.554 125.362C181.144 124.781 182.416 122.833 183.128 119.874C184.263 115.263 181.053 110.192 178.691 106.488C178.07 105.492 177.465 104.555 177.025 103.722C175.632 101.179 175.072 97.3121 174.3 91.9729C173.785 88.3738 173.195 84.3136 172.21 79.7329C169.969 69.2032 155.691 59.4469 155.555 59.3577C155.352 59.2196 155.187 59.035 155.073 58.8198C154.96 58.6047 154.901 58.3656 154.903 58.1233V48.7685H109.933C109.045 59.5943 107.375 70.3444 104.936 80.9376C102.437 91.9283 103.089 132.723 103.422 139.089C103.434 140.203 103.785 141.288 104.43 142.205C105.075 143.122 105.984 143.829 107.041 144.235C107.833 144.518 108.696 144.553 109.509 144.335C110.323 144.117 111.048 143.655 111.583 143.015C113.385 141.007 114.611 136.174 114.778 130.106C114.778 129.711 114.937 129.333 115.221 129.054C115.505 128.775 115.891 128.619 116.292 128.619C116.694 128.619 117.079 128.775 117.363 129.054C117.647 129.333 117.806 129.711 117.806 130.106C117.806 134.181 117.806 147.834 119.169 152.667C119.314 153.418 119.617 154.131 120.057 154.76C120.498 155.39 121.067 155.923 121.728 156.326C123.242 157.07 125.453 156.906 128.572 155.805C129.359 155.523 130.086 154.184 130.54 152.132C130.581 151.737 130.779 151.375 131.091 151.124C131.403 150.873 131.804 150.754 132.206 150.793C132.608 150.833 132.977 151.027 133.232 151.334C133.488 151.641 133.609 152.035 133.569 152.429C133.528 154.149 133.665 155.868 133.978 157.56C134.19 158.384 134.589 159.15 135.145 159.802C135.701 160.453 136.399 160.973 137.188 161.323C138.125 161.682 139.135 161.82 140.137 161.727C141.139 161.634 142.104 161.313 142.957 160.788C145.213 159.583 145.818 156.162 145.985 153.515C145.985 153.121 146.144 152.742 146.428 152.463C146.712 152.184 147.098 152.028 147.499 152.028L147.302 152.072Z" fill="#093F68"/>
<path d="M147.363 155.047C146.961 155.047 146.576 154.891 146.292 154.612C146.008 154.333 145.849 153.955 145.849 153.56V111.114C145.849 110.72 146.008 110.341 146.292 110.063C146.576 109.784 146.961 109.627 147.363 109.627C147.765 109.627 148.15 109.784 148.434 110.063C148.718 110.341 148.877 110.72 148.877 111.114V153.56C148.877 153.955 148.718 154.333 148.434 154.612C148.15 154.891 147.765 155.047 147.363 155.047Z" fill="#093F68"/>
<path d="M131.979 153.932C131.577 153.932 131.192 153.775 130.908 153.496C130.624 153.217 130.465 152.839 130.465 152.445V111.114C130.465 110.72 130.624 110.341 130.908 110.063C131.192 109.784 131.577 109.627 131.979 109.627C132.38 109.627 132.766 109.784 133.05 110.063C133.334 110.341 133.493 110.72 133.493 111.114V152.445C133.493 152.839 133.334 153.217 133.05 153.496C132.766 153.775 132.38 153.932 131.979 153.932Z" fill="#093F68"/>
<path d="M116.277 131.563C115.875 131.563 115.49 131.407 115.206 131.128C114.922 130.849 114.763 130.471 114.763 130.076V109.939C114.763 109.544 114.922 109.166 115.206 108.887C115.49 108.608 115.875 108.452 116.277 108.452C116.679 108.452 117.064 108.608 117.348 108.887C117.632 109.166 117.791 109.544 117.791 109.939V130.076C117.791 130.471 117.632 130.849 117.348 131.128C117.064 131.407 116.679 131.563 116.277 131.563Z" fill="#093F68"/>
<path d="M163.913 3.73413V47.2806H104.164V5.87576C115.536 2.97064 127.239 1.50621 138.99 1.51814C147.348 1.52087 155.69 2.26253 163.913 3.73413Z" fill="#70CC40"/>
<path d="M163.913 48.7684H104.164C103.762 48.7684 103.377 48.6118 103.093 48.3328C102.809 48.0539 102.649 47.6756 102.649 47.2812V5.87637C102.639 5.53863 102.745 5.20732 102.952 4.93699C103.158 4.66667 103.452 4.47344 103.785 4.38913C123.502 -0.613968 144.09 -1.34977 164.125 2.23263C164.477 2.29598 164.796 2.48024 165.023 2.75259C165.251 3.02494 165.372 3.36771 165.366 3.71987V47.2812C165.367 47.6655 165.215 48.0351 164.944 48.3123C164.673 48.5896 164.304 48.7531 163.913 48.7684ZM105.678 45.794H162.338V4.98403C143.511 1.79186 124.214 2.49086 105.678 7.03642V45.794Z" fill="#093F68"/>
</g>
</svg>
