<svg width="64" height="64" viewBox="0 0 64 64" fill="none" xmlns="http://www.w3.org/2000/svg">
<path d="M27.9172 4.90383C30.2291 2.36539 34.223 2.36539 36.5349 4.90383L39.5078 8.16814C40.676 9.45107 42.3553 10.1466 44.0888 10.0656L48.4991 9.85952C51.9285 9.69922 54.753 12.5235 54.5928 15.9532L54.3865 20.3635C54.3054 22.0968 55.001 23.776 56.284 24.9444L59.5483 27.9172C62.0869 30.2291 62.0869 34.223 59.5483 36.5349L56.284 39.5078C55.001 40.676 54.3054 42.3553 54.3865 44.0888L54.5928 48.4991C54.753 51.9285 51.9285 54.753 48.4991 54.5928L44.0888 54.3865C42.3553 54.3054 40.676 55.001 39.5078 56.284L36.5349 59.5483C34.223 62.0869 30.2291 62.0869 27.9172 59.5483L24.9444 56.284C23.776 55.001 22.0968 54.3054 20.3635 54.3865L15.9531 54.5928C12.5235 54.753 9.69922 51.9285 9.85952 48.4991L10.0656 44.0888C10.1466 42.3553 9.45107 40.676 8.16814 39.5078L4.90383 36.5349C2.36539 34.223 2.36539 30.2291 4.90383 27.9172L8.16814 24.9444C9.45107 23.776 10.1466 22.0968 10.0656 20.3635L9.85952 15.9531C9.69922 12.5235 12.5235 9.69922 15.9532 9.85952L20.3635 10.0656C22.0968 10.1466 23.776 9.45107 24.9444 8.16814L27.9172 4.90383Z" stroke="#49FF00" stroke-width="4.37094"/>
<path d="M23.4842 32.2264L29.3121 38.0543L40.968 26.3984" stroke="#49FF00" stroke-width="4.37094" stroke-linecap="round" stroke-linejoin="round"/>
</svg>
