<svg width="380" height="323" viewBox="0 0 380 323" fill="none" xmlns="http://www.w3.org/2000/svg">
<g style="mix-blend-mode:overlay">
<path opacity="0.24" d="M190 291.347C294.934 291.347 380 238.109 380 172.436C380 106.763 294.934 53.5239 190 53.5239C85.0659 53.5239 0 106.763 0 172.436C0 238.109 85.0659 291.347 190 291.347Z" fill="#E6E6E6"/>
<path d="M156.157 97.058C156.157 97.058 199.658 91.5509 268.254 12.3452L292.311 176.966C292.311 176.966 218.383 136.544 167.986 152.624C167.986 152.624 140.688 127.43 156.157 97.058Z" fill="#68E1FD"/>
<path d="M307.636 177.715C337.591 175.095 357.321 134.251 351.706 86.4859C346.09 38.721 317.254 2.12357 287.299 4.74315C257.344 7.36274 237.614 48.2074 243.23 95.9722C248.846 143.737 277.681 180.334 307.636 177.715Z" fill="#24285B"/>
<path d="M115.481 157.195C115.481 157.195 110.341 178.769 135.308 182.307C160.276 185.845 189.202 240.627 189.202 240.627L220.044 224.395C220.044 224.395 167.028 162.798 182.992 149.485L115.481 157.195Z" fill="#68E1FD"/>
<path opacity="0.46" d="M115.481 157.195C115.481 157.195 110.341 178.769 135.308 182.307C160.276 185.845 189.202 240.627 189.202 240.627L220.044 224.395C220.044 224.395 167.028 162.798 182.992 149.485L115.481 157.195Z" fill="white"/>
<path d="M252.61 134.038L301.283 119.926L295.488 70.7617L242.233 73.7355C242.233 73.7355 237.955 100.858 252.61 134.038Z" fill="#68E1FD"/>
<path opacity="0.18" d="M252.61 134.038L301.283 119.926L295.488 70.7617L242.233 73.7355C242.233 73.7355 237.955 100.858 252.61 134.038Z" fill="black"/>
<path d="M301.284 119.942C309.801 119.197 315.411 107.585 313.815 94.0064C312.218 80.4274 304.02 70.0232 295.502 70.7681C286.985 71.5129 281.375 83.1247 282.971 96.7037C284.568 110.283 292.767 120.687 301.284 119.942Z" fill="#68E1FD"/>
<path d="M161.313 95.9424C161.313 95.9424 89.4766 110.646 85.4537 123.698C81.4309 136.75 94.0422 166.378 111.89 165.841C129.737 165.304 166.677 151.344 166.677 151.344C166.677 151.344 148.287 121.027 161.313 95.9424Z" fill="#24285B"/>
<path d="M23.4188 296.18L135.34 218.475L170.077 242.334L111.123 320.135L23.4188 296.18Z" fill="#F4A28C"/>
<path d="M188.276 174.597C192.881 174.263 197.489 175.211 201.422 177.303C205.356 179.395 208.408 182.519 210.13 186.217C216.516 199.448 216.276 208.08 199.45 212.858C182.625 217.635 178.57 178.838 178.57 178.838L188.276 174.597Z" fill="#D68676"/>
<path d="M172.488 150.697L186.185 176.153L200.648 169.104C202.374 168.282 203.686 166.938 204.331 165.332C204.977 163.725 204.91 161.97 204.144 160.403L198.62 148.934C198.62 148.934 182.992 146.759 172.488 150.697Z" fill="#24285B"/>
<path d="M132.563 224.244C132.563 224.244 137.783 181.66 155.582 176.566C173.382 171.472 195.092 182.073 184.684 193.473C174.276 204.873 161.026 192.413 161.026 192.413L181.555 227.796L170.077 242.335L132.563 224.244Z" fill="#F4A28C"/>
<path d="M182.609 157.786C183.74 157.069 185.108 156.683 186.512 156.683C187.916 156.683 189.283 157.069 190.415 157.786C193.129 159.48 196.114 162.385 194.805 166.474C192.554 173.509 178.299 182.816 172.456 179.03C167.539 175.836 174.675 162.825 182.609 157.786Z" fill="#F4A28C"/>
<path d="M10.983 293.468L115.034 323L166.677 257.851L112.065 224.574L10.983 293.468Z" fill="#FFD200"/>
<path opacity="0.06" d="M147.712 246.286L73.6725 311.255L115.034 322.999L166.677 257.851L147.712 246.286Z" fill="black"/>
</g>
</svg>
